{
    "asset" : {
        "generator" : "Khronos glTF Blender I/O v1.3.48",
        "version" : "2.0"
    },
    "scene" : 0,
    "scenes" : [
        {
            "name" : "Scene",
            "nodes" : [
                0,
                1
            ]
        }
    ],
    "nodes" : [
        {
            "name" : "Camera",
            "rotation" : [
                0.483536034822464,
                0.33687159419059753,
                -0.20870360732078552,
                0.7804827094078064
            ],
            "translation" : [
                -403.0714416503906,
                4.958309173583984,
                6.925790786743164
            ]
        },
        {
            "mesh" : 0,
            "name" : "RedPepper",
            "rotation" : [
                0.7071068286895752,
                0,
                0,
                0.7071067094802856
            ],
            "scale" : [
                657.43310546875,
                657.43310546875,
                657.43310546875
            ],
            "translation" : [
                -410.4303283691406,
                0,
                0
            ]
        }
    ],
    "materials" : [
        {
            "doubleSided" : true,
            "emissiveFactor" : [
                0,
                0,
                0
            ],
            "name" : "Material.001",
            "pbrMetallicRoughness" : {
                "baseColorFactor" : [
                    0.0732356607913971,
                    0.0732356607913971,
                    0.0732356607913971,
                    1
                ],
                "metallicFactor" : 0,
                "roughnessFactor" : 0.14539006352424622
            }
        }
    ],
    "meshes" : [
        {
            "name" : "RedPepper",
            "primitives" : [
                {
                    "attributes" : {
                        "POSITION" : 0,
                        "NORMAL" : 1
                    },
                    "indices" : 2,
                    "material" : 0
                }
            ]
        }
    ],
    "accessors" : [
        {
            "bufferView" : 0,
            "componentType" : 5126,
            "count" : 1360,
            "max" : [
                0.01285799965262413,
                0.06899099797010422,
                0.01856200024485588
            ],
            "min" : [
                -0.012861000373959541,
                -0.04878599941730499,
                -0.03908900171518326
            ],
            "type" : "VEC3"
        },
        {
            "bufferView" : 1,
            "componentType" : 5126,
            "count" : 1360,
            "type" : "VEC3"
        },
        {
            "bufferView" : 2,
            "componentType" : 5123,
            "count" : 2424,
            "type" : "SCALAR"
        }
    ],
    "bufferViews" : [
        {
            "buffer" : 0,
            "byteLength" : 16320,
            "byteOffset" : 0
        },
        {
            "buffer" : 0,
            "byteLength" : 16320,
            "byteOffset" : 16320
        },
        {
            "buffer" : 0,
            "byteLength" : 4848,
            "byteOffset" : 32640
        }
    ],
    "buffers" : [
        {
            "byteLength" : 37488,
            "uri" : "data:application/octet-stream;base64,"
        }
    ]
}
