{
    "asset" : {
        "generator" : "Khronos glTF Blender I/O v1.3.48",
        "version" : "2.0"
    },
    "scene" : 0,
    "scenes" : [
        {
            "name" : "Scene",
            "nodes" : [
                0,
                1,
                2
            ]
        }
    ],
    "nodes" : [
        {
            "name" : "Light",
            "rotation" : [
                0.16907575726509094,
                0.7558803558349609,
                -0.27217137813568115,
                0.570947527885437
            ],
            "translation" : [
                45.448402404785156,
                49.36247253417969,
                50.95479202270508
            ]
        },
        {
            "name" : "Camera",
            "rotation" : [
                0.2715606987476349,
                0.2605116665363312,
                0.09696241468191147,
                0.9214048981666565
            ],
            "scale" : [
                0.6665520668029785,
                0.6665520668029785,
                0.6665520668029785
            ],
            "translation" : [
                182.44573974609375,
                5.598569869995117,
                5.542963027954102
            ]
        },
        {
            "mesh" : 0,
            "name" : "uploads_files_2903365_Crate",
            "rotation" : [
                0.5454778075218201,
                0.06493568420410156,
                0.36281251907348633,
                0.7527312636375427
            ],
            "scale" : [
                0.6665520668029785,
                0.6665520668029785,
                0.6665520668029785
            ],
            "translation" : [
                215.96543884277344,
                -0.6402606964111328,
                1.3828272819519043
            ]
        }
    ],
    "materials" : [
        {
            "doubleSided" : true,
            "emissiveFactor" : [
                0,
                0,
                0
            ],
            "name" : "Default OBJ.001",
            "pbrMetallicRoughness" : {
                "baseColorFactor" : [
                    0.10653512924909592,
                    0.10653512924909592,
                    0.10653512924909592,
                    1
                ],
                "metallicFactor" : 0,
                "roughnessFactor" : 0.152482271194458
            }
        }
    ],
    "meshes" : [
        {
            "name" : "uploads_files_2903365_Crate.001",
            "primitives" : [
                {
                    "attributes" : {
                        "POSITION" : 0,
                        "NORMAL" : 1,
                        "TEXCOORD_0" : 2
                    },
                    "indices" : 3,
                    "material" : 0
                }
            ]
        }
    ],
    "accessors" : [
        {
            "bufferView" : 0,
            "componentType" : 5126,
            "count" : 9978,
            "max" : [
                23.969406127929688,
                23.969810485839844,
                9.999999974752427e-07
            ],
            "min" : [
                -23.969406127929688,
                -23.969810485839844,
                -37.9918327331543
            ],
            "type" : "VEC3"
        },
        {
            "bufferView" : 1,
            "componentType" : 5126,
            "count" : 9978,
            "type" : "VEC3"
        },
        {
            "bufferView" : 2,
            "componentType" : 5126,
            "count" : 9978,
            "type" : "VEC2"
        },
        {
            "bufferView" : 3,
            "componentType" : 5123,
            "count" : 12888,
            "type" : "SCALAR"
        }
    ],
    "bufferViews" : [
        {
            "buffer" : 0,
            "byteLength" : 119736,
            "byteOffset" : 0
        },
        {
            "buffer" : 0,
            "byteLength" : 119736,
            "byteOffset" : 119736
        },
        {
            "buffer" : 0,
            "byteLength" : 79824,
            "byteOffset" : 239472
        },
        {
            "buffer" : 0,
            "byteLength" : 25776,
            "byteOffset" : 319296
        }
    ],
    "buffers" : [
        {
            "byteLength" : 345072,
            "uri" : "data:application/octet-stream;base64,"
        }
    ]
}
