{
    "asset" : {
        "generator" : "Khronos glTF Blender I/O v1.3.48",
        "version" : "2.0"
    },
    "scene" : 0,
    "scenes" : [
        {
            "name" : "Scene",
            "nodes" : [
                0
            ]
        }
    ],
    "nodes" : [
        {
            "mesh" : 0,
            "name" : "GeoSphere003",
            "rotation" : [
                0.7071068286895752,
                0,
                0,
                0.7071067094802856
            ],
            "scale" : [
                0.03315579891204834,
                0.03315579891204834,
                0.03315579891204834
            ]
        }
    ],
    "materials" : [
        {
            "doubleSided" : true,
            "emissiveFactor" : [
                0,
                0,
                0
            ],
            "name" : "wire_177027088.001",
            "pbrMetallicRoughness" : {
                "baseColorFactor" : [
                    0,
                    0,
                    0,
                    1
                ],
                "metallicFactor" : 0,
                "roughnessFactor" : 0.1808510422706604
            }
        }
    ],
    "meshes" : [
        {
            "name" : "GeoSphere003.001",
            "primitives" : [
                {
                    "attributes" : {
                        "POSITION" : 0,
                        "NORMAL" : 1,
                        "TEXCOORD_0" : 2
                    },
                    "indices" : 3,
                    "material" : 0
                }
            ]
        }
    ],
    "accessors" : [
        {
            "bufferView" : 0,
            "componentType" : 5126,
            "count" : 11880,
            "max" : [
                787.292236328125,
                790.315185546875,
                778.5794677734375
            ],
            "min" : [
                -787.2924194335938,
                -790.309326171875,
                -778.5797729492188
            ],
            "type" : "VEC3"
        },
        {
            "bufferView" : 1,
            "componentType" : 5126,
            "count" : 11880,
            "type" : "VEC3"
        },
        {
            "bufferView" : 2,
            "componentType" : 5126,
            "count" : 11880,
            "type" : "VEC2"
        },
        {
            "bufferView" : 3,
            "componentType" : 5123,
            "count" : 19440,
            "type" : "SCALAR"
        }
    ],
    "bufferViews" : [
        {
            "buffer" : 0,
            "byteLength" : 142560,
            "byteOffset" : 0
        },
        {
            "buffer" : 0,
            "byteLength" : 142560,
            "byteOffset" : 142560
        },
        {
            "buffer" : 0,
            "byteLength" : 95040,
            "byteOffset" : 285120
        },
        {
            "buffer" : 0,
            "byteLength" : 38880,
            "byteOffset" : 380160
        }
    ],
    "buffers" : [
        {
            "byteLength" : 419040,
            "uri" : "data:application/octet-stream;base64,"
        }
    ]
}
