{
    "asset" : {
        "generator" : "Khronos glTF Blender I/O v1.3.48",
        "version" : "2.0"
    },
    "scene" : 0,
    "scenes" : [
        {
            "name" : "Scene",
            "nodes" : [
                0,
                1,
                2,
                3,
                4,
                5,
                6,
                7,
                8
            ]
        }
    ],
    "nodes" : [
        {
            "mesh" : 0,
            "name" : "Text.001",
            "rotation" : [
                0.5030117630958557,
                0.4962960183620453,
                -0.5185911655426025,
                0.4813863933086395
            ],
            "scale" : [
                92.69468688964844,
                92.69468688964844,
                92.69468688964844
            ],
            "translation" : [
                -199.4172821044922,
                0,
                28.57265281677246
            ]
        },
        {
            "mesh" : 1,
            "name" : "Text.002",
            "rotation" : [
                0.19291388988494873,
                0.8326579332351685,
                -0.49451935291290283,
                0.15784679353237152
            ],
            "scale" : [
                92.69468688964844,
                92.69468688964844,
                92.69468688964844
            ],
            "translation" : [
                -57.44935607910156,
                -121.30870056152344,
                199.91612243652344
            ]
        },
        {
            "mesh" : 2,
            "name" : "Text.003",
            "rotation" : [
                0.19291388988494873,
                0.8326579332351685,
                -0.49451935291290283,
                0.15784679353237152
            ],
            "scale" : [
                92.69468688964844,
                92.69468688964844,
                92.69468688964844
            ],
            "translation" : [
                86.76365661621094,
                -26.80089569091797,
                -238.6446075439453
            ]
        },
        {
            "mesh" : 3,
            "name" : "Text.004",
            "rotation" : [
                0.2590881586074829,
                0.42461958527565,
                -0.628305971622467,
                0.5981666445732117
            ],
            "scale" : [
                92.69468688964844,
                92.69468688964844,
                92.69468688964844
            ],
            "translation" : [
                -261.203125,
                143.02862548828125,
                -19.545757293701172
            ]
        },
        {
            "mesh" : 4,
            "name" : "Text.005",
            "rotation" : [
                0.02058217115700245,
                0.6946101784706116,
                -0.697734534740448,
                0.17395329475402832
            ],
            "scale" : [
                92.69468688964844,
                92.69468688964844,
                92.69468688964844
            ],
            "translation" : [
                -75.97122192382812,
                150.02542114257812,
                153.2821044921875
            ]
        },
        {
            "mesh" : 5,
            "name" : "Text.006",
            "rotation" : [
                0.02058217115700245,
                0.6946101784706116,
                -0.697734534740448,
                0.17395329475402832
            ],
            "scale" : [
                92.69468688964844,
                92.69468688964844,
                92.69468688964844
            ],
            "translation" : [
                -10.731376647949219,
                16.472984313964844,
                -293.9003601074219
            ]
        },
        {
            "mesh" : 6,
            "name" : "Text.007",
            "rotation" : [
                -0.5032841563224792,
                -0.4963085353374481,
                0.5191106796264648,
                -0.4805278778076172
            ],
            "scale" : [
                92.69468688964844,
                92.69468688964844,
                92.69468688964844
            ],
            "translation" : [
                251.82888793945312,
                -56.47783660888672,
                160.99591064453125
            ]
        },
        {
            "mesh" : 7,
            "name" : "Text.008",
            "rotation" : [
                0.17180339992046356,
                0.28078964352607727,
                -0.40065497159957886,
                0.8550534248352051
            ],
            "scale" : [
                92.69468688964844,
                92.69468688964844,
                92.69468688964844
            ],
            "translation" : [
                190.22581481933594,
                86.6823959350586,
                113.03482055664062
            ]
        },
        {
            "mesh" : 8,
            "name" : "Text.009",
            "rotation" : [
                -0.09683602303266525,
                0.9431484341621399,
                0.1008014902472496,
                0.30155086517333984
            ],
            "scale" : [
                92.69468688964844,
                92.69468688964844,
                92.69468688964844
            ],
            "translation" : [
                25.6761474609375,
                -195.547607421875,
                23.250450134277344
            ]
        }
    ],
    "materials" : [
        {
            "doubleSided" : true,
            "emissiveFactor" : [
                0,
                0,
                0
            ],
            "name" : "Material.002",
            "pbrMetallicRoughness" : {
                "baseColorFactor" : [
                    0.003642431925982237,
                    0.003642431925982237,
                    0.003642431925982237,
                    1
                ],
                "metallicFactor" : 0,
                "roughnessFactor" : 1
            }
        }
    ],
    "meshes" : [
        {
            "name" : "Text.001",
            "primitives" : [
                {
                    "attributes" : {
                        "POSITION" : 0,
                        "NORMAL" : 1,
                        "TEXCOORD_0" : 2
                    },
                    "indices" : 3,
                    "material" : 0
                }
            ]
        },
        {
            "name" : "Text.003",
            "primitives" : [
                {
                    "attributes" : {
                        "POSITION" : 4,
                        "NORMAL" : 5,
                        "TEXCOORD_0" : 6
                    },
                    "indices" : 3,
                    "material" : 0
                }
            ]
        },
        {
            "name" : "Text.004",
            "primitives" : [
                {
                    "attributes" : {
                        "POSITION" : 7,
                        "NORMAL" : 8,
                        "TEXCOORD_0" : 9
                    },
                    "indices" : 3,
                    "material" : 0
                }
            ]
        },
        {
            "name" : "Text.005",
            "primitives" : [
                {
                    "attributes" : {
                        "POSITION" : 10,
                        "NORMAL" : 11,
                        "TEXCOORD_0" : 12
                    },
                    "indices" : 3,
                    "material" : 0
                }
            ]
        },
        {
            "name" : "Text.006",
            "primitives" : [
                {
                    "attributes" : {
                        "POSITION" : 13,
                        "NORMAL" : 14,
                        "TEXCOORD_0" : 15
                    },
                    "indices" : 3,
                    "material" : 0
                }
            ]
        },
        {
            "name" : "Text.007",
            "primitives" : [
                {
                    "attributes" : {
                        "POSITION" : 16,
                        "NORMAL" : 17,
                        "TEXCOORD_0" : 18
                    },
                    "indices" : 3,
                    "material" : 0
                }
            ]
        },
        {
            "name" : "Text.008",
            "primitives" : [
                {
                    "attributes" : {
                        "POSITION" : 19,
                        "NORMAL" : 20,
                        "TEXCOORD_0" : 21
                    },
                    "indices" : 3,
                    "material" : 0
                }
            ]
        },
        {
            "name" : "Text.009",
            "primitives" : [
                {
                    "attributes" : {
                        "POSITION" : 22,
                        "NORMAL" : 23,
                        "TEXCOORD_0" : 24
                    },
                    "indices" : 3,
                    "material" : 0
                }
            ]
        },
        {
            "name" : "Text.010",
            "primitives" : [
                {
                    "attributes" : {
                        "POSITION" : 25,
                        "NORMAL" : 26,
                        "TEXCOORD_0" : 27
                    },
                    "indices" : 3,
                    "material" : 0
                }
            ]
        }
    ],
    "accessors" : [
        {
            "bufferView" : 0,
            "componentType" : 5126,
            "count" : 18,
            "max" : [
                0.6092607378959656,
                0,
                0
            ],
            "min" : [
                0.005686433985829353,
                0,
                -0.5800162553787231
            ],
            "type" : "VEC3"
        },
        {
            "bufferView" : 1,
            "componentType" : 5126,
            "count" : 18,
            "type" : "VEC3"
        },
        {
            "bufferView" : 2,
            "componentType" : 5126,
            "count" : 18,
            "type" : "VEC2"
        },
        {
            "bufferView" : 3,
            "componentType" : 5123,
            "count" : 30,
            "type" : "SCALAR"
        },
        {
            "bufferView" : 4,
            "componentType" : 5126,
            "count" : 18,
            "max" : [
                0.6092607378959656,
                0,
                0
            ],
            "min" : [
                0.005686433985829353,
                0,
                -0.5800162553787231
            ],
            "type" : "VEC3"
        },
        {
            "bufferView" : 5,
            "componentType" : 5126,
            "count" : 18,
            "type" : "VEC3"
        },
        {
            "bufferView" : 6,
            "componentType" : 5126,
            "count" : 18,
            "type" : "VEC2"
        },
        {
            "bufferView" : 7,
            "componentType" : 5126,
            "count" : 18,
            "max" : [
                0.6092607378959656,
                0,
                0
            ],
            "min" : [
                0.005686433985829353,
                0,
                -0.5800162553787231
            ],
            "type" : "VEC3"
        },
        {
            "bufferView" : 8,
            "componentType" : 5126,
            "count" : 18,
            "type" : "VEC3"
        },
        {
            "bufferView" : 9,
            "componentType" : 5126,
            "count" : 18,
            "type" : "VEC2"
        },
        {
            "bufferView" : 10,
            "componentType" : 5126,
            "count" : 18,
            "max" : [
                0.6092607378959656,
                0,
                0
            ],
            "min" : [
                0.005686433985829353,
                0,
                -0.5800162553787231
            ],
            "type" : "VEC3"
        },
        {
            "bufferView" : 11,
            "componentType" : 5126,
            "count" : 18,
            "type" : "VEC3"
        },
        {
            "bufferView" : 12,
            "componentType" : 5126,
            "count" : 18,
            "type" : "VEC2"
        },
        {
            "bufferView" : 13,
            "componentType" : 5126,
            "count" : 18,
            "max" : [
                0.6092607378959656,
                0,
                0
            ],
            "min" : [
                0.005686433985829353,
                0,
                -0.5800162553787231
            ],
            "type" : "VEC3"
        },
        {
            "bufferView" : 14,
            "componentType" : 5126,
            "count" : 18,
            "type" : "VEC3"
        },
        {
            "bufferView" : 15,
            "componentType" : 5126,
            "count" : 18,
            "type" : "VEC2"
        },
        {
            "bufferView" : 16,
            "componentType" : 5126,
            "count" : 18,
            "max" : [
                0.6092607378959656,
                0,
                0
            ],
            "min" : [
                0.005686433985829353,
                0,
                -0.5800162553787231
            ],
            "type" : "VEC3"
        },
        {
            "bufferView" : 17,
            "componentType" : 5126,
            "count" : 18,
            "type" : "VEC3"
        },
        {
            "bufferView" : 18,
            "componentType" : 5126,
            "count" : 18,
            "type" : "VEC2"
        },
        {
            "bufferView" : 19,
            "componentType" : 5126,
            "count" : 18,
            "max" : [
                0.6092607378959656,
                0,
                0
            ],
            "min" : [
                0.005686433985829353,
                0,
                -0.5800162553787231
            ],
            "type" : "VEC3"
        },
        {
            "bufferView" : 20,
            "componentType" : 5126,
            "count" : 18,
            "type" : "VEC3"
        },
        {
            "bufferView" : 21,
            "componentType" : 5126,
            "count" : 18,
            "type" : "VEC2"
        },
        {
            "bufferView" : 22,
            "componentType" : 5126,
            "count" : 18,
            "max" : [
                0.6092607378959656,
                0,
                0
            ],
            "min" : [
                0.005686433985829353,
                0,
                -0.5800162553787231
            ],
            "type" : "VEC3"
        },
        {
            "bufferView" : 23,
            "componentType" : 5126,
            "count" : 18,
            "type" : "VEC3"
        },
        {
            "bufferView" : 24,
            "componentType" : 5126,
            "count" : 18,
            "type" : "VEC2"
        },
        {
            "bufferView" : 25,
            "componentType" : 5126,
            "count" : 18,
            "max" : [
                0.6092607378959656,
                0,
                0
            ],
            "min" : [
                0.005686433985829353,
                0,
                -0.5800162553787231
            ],
            "type" : "VEC3"
        },
        {
            "bufferView" : 26,
            "componentType" : 5126,
            "count" : 18,
            "type" : "VEC3"
        },
        {
            "bufferView" : 27,
            "componentType" : 5126,
            "count" : 18,
            "type" : "VEC2"
        }
    ],
    "bufferViews" : [
        {
            "buffer" : 0,
            "byteLength" : 216,
            "byteOffset" : 0
        },
        {
            "buffer" : 0,
            "byteLength" : 216,
            "byteOffset" : 216
        },
        {
            "buffer" : 0,
            "byteLength" : 144,
            "byteOffset" : 432
        },
        {
            "buffer" : 0,
            "byteLength" : 60,
            "byteOffset" : 576
        },
        {
            "buffer" : 0,
            "byteLength" : 216,
            "byteOffset" : 636
        },
        {
            "buffer" : 0,
            "byteLength" : 216,
            "byteOffset" : 852
        },
        {
            "buffer" : 0,
            "byteLength" : 144,
            "byteOffset" : 1068
        },
        {
            "buffer" : 0,
            "byteLength" : 216,
            "byteOffset" : 1212
        },
        {
            "buffer" : 0,
            "byteLength" : 216,
            "byteOffset" : 1428
        },
        {
            "buffer" : 0,
            "byteLength" : 144,
            "byteOffset" : 1644
        },
        {
            "buffer" : 0,
            "byteLength" : 216,
            "byteOffset" : 1788
        },
        {
            "buffer" : 0,
            "byteLength" : 216,
            "byteOffset" : 2004
        },
        {
            "buffer" : 0,
            "byteLength" : 144,
            "byteOffset" : 2220
        },
        {
            "buffer" : 0,
            "byteLength" : 216,
            "byteOffset" : 2364
        },
        {
            "buffer" : 0,
            "byteLength" : 216,
            "byteOffset" : 2580
        },
        {
            "buffer" : 0,
            "byteLength" : 144,
            "byteOffset" : 2796
        },
        {
            "buffer" : 0,
            "byteLength" : 216,
            "byteOffset" : 2940
        },
        {
            "buffer" : 0,
            "byteLength" : 216,
            "byteOffset" : 3156
        },
        {
            "buffer" : 0,
            "byteLength" : 144,
            "byteOffset" : 3372
        },
        {
            "buffer" : 0,
            "byteLength" : 216,
            "byteOffset" : 3516
        },
        {
            "buffer" : 0,
            "byteLength" : 216,
            "byteOffset" : 3732
        },
        {
            "buffer" : 0,
            "byteLength" : 144,
            "byteOffset" : 3948
        },
        {
            "buffer" : 0,
            "byteLength" : 216,
            "byteOffset" : 4092
        },
        {
            "buffer" : 0,
            "byteLength" : 216,
            "byteOffset" : 4308
        },
        {
            "buffer" : 0,
            "byteLength" : 144,
            "byteOffset" : 4524
        },
        {
            "buffer" : 0,
            "byteLength" : 216,
            "byteOffset" : 4668
        },
        {
            "buffer" : 0,
            "byteLength" : 216,
            "byteOffset" : 4884
        },
        {
            "buffer" : 0,
            "byteLength" : 144,
            "byteOffset" : 5100
        }
    ],
    "buffers" : [
        {
            "byteLength" : 5244,
            "uri" : "data:application/octet-stream;base64,"
        }
    ]
}
