{
    "asset" : {
        "generator" : "Khronos glTF Blender I/O v1.3.48",
        "version" : "2.0"
    },
    "scene" : 0,
    "scenes" : [
        {
            "name" : "Scene",
            "nodes" : [
                0
            ]
        }
    ],
    "nodes" : [
        {
            "mesh" : 0,
            "name" : "Text",
            "rotation" : [
                0.6814680695533752,
                -0.06061143800616264,
                0.1015605479478836,
                0.7222278118133545
            ],
            "scale" : [
                43.249755859375,
                43.249755859375,
                43.249755859375
            ],
            "translation" : [
                -38.5766716003418,
                0,
                217.130615234375
            ]
        }
    ],
    "materials" : [
        {
            "doubleSided" : true,
            "emissiveFactor" : [
                0,
                0,
                0
            ],
            "name" : "Material.001",
            "pbrMetallicRoughness" : {
                "baseColorFactor" : [
                    0.007194016128778458,
                    0.007194016128778458,
                    0.007194016128778458,
                    1
                ],
                "metallicFactor" : 0.18784530460834503,
                "roughnessFactor" : 0.3232044279575348
            }
        }
    ],
    "meshes" : [
        {
            "name" : "Text",
            "primitives" : [
                {
                    "attributes" : {
                        "POSITION" : 0,
                        "NORMAL" : 1,
                        "TEXCOORD_0" : 2
                    },
                    "indices" : 3,
                    "material" : 0
                }
            ]
        }
    ],
    "accessors" : [
        {
            "bufferView" : 0,
            "componentType" : 5126,
            "count" : 540,
            "max" : [
                2.295712471008301,
                0,
                0.012610340490937233
            ],
            "min" : [
                0.04413619264960289,
                0,
                -0.5170239806175232
            ],
            "type" : "VEC3"
        },
        {
            "bufferView" : 1,
            "componentType" : 5126,
            "count" : 540,
            "type" : "VEC3"
        },
        {
            "bufferView" : 2,
            "componentType" : 5126,
            "count" : 540,
            "type" : "VEC2"
        },
        {
            "bufferView" : 3,
            "componentType" : 5123,
            "count" : 1164,
            "type" : "SCALAR"
        }
    ],
    "bufferViews" : [
        {
            "buffer" : 0,
            "byteLength" : 6480,
            "byteOffset" : 0
        },
        {
            "buffer" : 0,
            "byteLength" : 6480,
            "byteOffset" : 6480
        },
        {
            "buffer" : 0,
            "byteLength" : 4320,
            "byteOffset" : 12960
        },
        {
            "buffer" : 0,
            "byteLength" : 2328,
            "byteOffset" : 17280
        }
    ],
    "buffers" : [
        {
            "byteLength" : 19608,
            "uri" : "data:application/octet-stream;base64,"
        }
    ]
}
