{
    "asset" : {
        "generator" : "Khronos glTF Blender I/O v1.3.48",
        "version" : "2.0"
    },
    "scene" : 0,
    "scenes" : [
        {
            "name" : "Scene",
            "nodes" : [
                0,
                1,
                2
            ]
        }
    ],
    "nodes" : [
        {
            "name" : "Light",
            "rotation" : [
                0.16907575726509094,
                0.7558803558349609,
                -0.27217137813568115,
                0.570947527885437
            ],
            "translation" : [
                6.898904800415039,
                12.353450775146484,
                -37.509239196777344
            ]
        },
        {
            "name" : "Camera",
            "rotation" : [
                0.483536034822464,
                0.33687159419059753,
                -0.20870360732078552,
                0.7804827094078064
            ],
            "translation" : [
                7.358891487121582,
                4.958309173583984,
                6.925790786743164
            ]
        },
        {
            "mesh" : 0,
            "name" : "happy",
            "rotation" : [
                0.7071068286895752,
                0,
                0,
                0.7071067094802856
            ]
        }
    ],
    "materials" : [
        {
            "doubleSided" : true,
            "emissiveFactor" : [
                0,
                0,
                0
            ],
            "name" : "defaultMat.001",
            "pbrMetallicRoughness" : {
                "baseColorFactor" : [
                    0.8549789190292358,
                    0.8549789190292358,
                    0.8549789190292358,
                    1
                ],
                "metallicFactor" : 0,
                "roughnessFactor" : 0.14539000391960144
            }
        }
    ],
    "meshes" : [
        {
            "name" : "happy.001",
            "primitives" : [
                {
                    "attributes" : {
                        "POSITION" : 0,
                        "NORMAL" : 1,
                        "TEXCOORD_0" : 2
                    },
                    "indices" : 3,
                    "material" : 0
                }
            ]
        }
    ],
    "accessors" : [
        {
            "bufferView" : 0,
            "componentType" : 5126,
            "count" : 9260,
            "max" : [
                10.826420783996582,
                10.862666130065918,
                10.979458808898926
            ],
            "min" : [
                -10.809839248657227,
                -10.873394012451172,
                -10.631046295166016
            ],
            "type" : "VEC3"
        },
        {
            "bufferView" : 1,
            "componentType" : 5126,
            "count" : 9260,
            "type" : "VEC3"
        },
        {
            "bufferView" : 2,
            "componentType" : 5126,
            "count" : 9260,
            "type" : "VEC2"
        },
        {
            "bufferView" : 3,
            "componentType" : 5123,
            "count" : 52416,
            "type" : "SCALAR"
        }
    ],
    "bufferViews" : [
        {
            "buffer" : 0,
            "byteLength" : 111120,
            "byteOffset" : 0
        },
        {
            "buffer" : 0,
            "byteLength" : 111120,
            "byteOffset" : 111120
        },
        {
            "buffer" : 0,
            "byteLength" : 74080,
            "byteOffset" : 222240
        },
        {
            "buffer" : 0,
            "byteLength" : 104832,
            "byteOffset" : 296320
        }
    ],
    "buffers" : [
        {
            "byteLength" : 401152,
            "uri" : "data:application/octet-stream;base64,"
        }
    ]
}
