{
    "asset" : {
        "generator" : "Khronos glTF Blender I/O v1.3.48",
        "version" : "2.0"
    },
    "scene" : 0,
    "scenes" : [
        {
            "name" : "Scene",
            "nodes" : [
                0
            ]
        }
    ],
    "nodes" : [
        {
            "mesh" : 0,
            "name" : "Cube.3071",
            "scale" : [
                0.015025119297206402,
                0.015025119297206402,
                0.015025119297206402
            ],
            "translation" : [
                -0.5414825081825256,
                -3.8652710914611816,
                -3.276714563369751
            ]
        }
    ],
    "materials" : [
        {
            "doubleSided" : true,
            "emissiveFactor" : [
                0,
                0,
                0
            ],
            "name" : "Material.003",
            "pbrMetallicRoughness" : {
                "baseColorFactor" : [
                    0.03521791473031044,
                    0.03521791473031044,
                    0.03521791473031044,
                    1
                ],
                "metallicFactor" : 0,
                "roughnessFactor" : 0.1666666567325592
            }
        }
    ],
    "meshes" : [
        {
            "name" : "Cube.3074",
            "primitives" : [
                {
                    "attributes" : {
                        "POSITION" : 0,
                        "NORMAL" : 1,
                        "TEXCOORD_0" : 2
                    },
                    "indices" : 3,
                    "material" : 0
                }
            ]
        }
    ],
    "accessors" : [
        {
            "bufferView" : 0,
            "componentType" : 5126,
            "count" : 73728,
            "max" : [
                692.0296630859375,
                780.8765869140625,
                962.9852905273438
            ],
            "min" : [
                -627.4156494140625,
                -209.109619140625,
                -488.50616455078125
            ],
            "type" : "VEC3"
        },
        {
            "bufferView" : 1,
            "componentType" : 5126,
            "count" : 73728,
            "type" : "VEC3"
        },
        {
            "bufferView" : 2,
            "componentType" : 5126,
            "count" : 73728,
            "type" : "VEC2"
        },
        {
            "bufferView" : 3,
            "componentType" : 5125,
            "count" : 110592,
            "type" : "SCALAR"
        }
    ],
    "bufferViews" : [
        {
            "buffer" : 0,
            "byteLength" : 884736,
            "byteOffset" : 0
        },
        {
            "buffer" : 0,
            "byteLength" : 884736,
            "byteOffset" : 884736
        },
        {
            "buffer" : 0,
            "byteLength" : 589824,
            "byteOffset" : 1769472
        },
        {
            "buffer" : 0,
            "byteLength" : 442368,
            "byteOffset" : 2359296
        }
    ],
    "buffers" : [
        {
            "byteLength" : 2801664,
            "uri" : "data:application/octet-stream;base64,"
        }
    ]
}
