<svg id="Layer_1" data-name="Layer 1" xmlns="http://www.w3.org/2000/svg" viewBox="0 0 189.42 93.27"><path d="M4.58,3.73H16.9V51.38h.24L50.63,3.73H65.25L39.19,40.22,68,96.24H53.36L31.19,51,16.9,68.07V96.24H4.58Z" transform="translate(-4.58 -3.73)"/><path d="M123.46,55.82H91.19V96.24H78.88V3.73H91.19V43.39h32.27V3.73h12.31V96.24H123.46Z" transform="translate(-4.58 -3.73)"/><path d="M156.77,76.82a13.91,13.91,0,0,0,4.47,4.26,10.69,10.69,0,0,0,6.41,2q4.9.12,9.36-3.88a13.13,13.13,0,0,0,3.4-5.2,20.74,20.74,0,0,0,1.28-7.81V3.73H194V67.5q-.23,13.95-8,21.57A25.08,25.08,0,0,1,168,97q-14.27-.37-21.47-12Z" transform="translate(-4.58 -3.73)"/></svg>